# xmcd
#
# Track frame offsets: 
#        151
#        11677
#        19880
#        29122
#        41665
#        50564
#        63931
#        73302
#        82413
#        92650
#        101779
#        112310
#        124106
#        135005
#        151918
#        161560
#        172135
#        182617
#        193687
#        203352
#
# Disc length: 2853 seconds
#
# Revision: 2
# Processed by: cddbd v1.5.2PL0 Copyright (c) Steve Scherf et al.
# Submitted via: ExactAudioCopyFreeDBPlugin 1.0
#
DISCID=1f0b2314
DTITLE=Various Artist - The Greatest Hits of Sun Studios Volume 2 -  
DTITLE=CD 8
DYEAR=2012
DGENRE=Rock and Roll
TTITLE0=Jerry Lee Lewis - High School Confidential
TTITLE1=Malcolm Yelvington - Have Myself a Ball
TTITLE2=Mack Self - Vibrate
TTITLE3=Carl Perkins - Your True Love
TTITLE4=Charlie Feathers - The Man In Love
TTITLE5=Wade Cagle and The Escorts - Forty Days
TTITLE6=Glen Honeycutt - Rock All Night
TTITLE7=James Woods - Lock You In My Heart
TTITLE8=Johnny Cash - Get Rhythm
TTITLE9=Ken Cook - Don't Be Runnin' Wild (Problem Child)
TTITLE10=Jack Earls - Slow Down
TTITLE11=Kenny Parchman - I Feel Like Rockin
TTITLE12=Cliff Gleaves - Love Is My Business
TTITLE13=The Prisonaires - I Know
TTITLE14=Ernie Chaffin - Laughin and Jokin'
TTITLE15=Wally Jeffrey - Oh Yeah
TTITLE16=Jimmy Pritchett - That's The Way I Feel
TTITLE17=Carl Perkins - Dixie Fried
TTITLE18=Roy Orbison - You're My Baby
TTITLE19=Johnny Cash - Train Of Love
EXTD=YEAR: 2001
EXTT0=
EXTT1=
EXTT2=
EXTT3=
EXTT4=
EXTT5=
EXTT6=
EXTT7=
EXTT8=
EXTT9=
EXTT10=
EXTT11=
EXTT12=
EXTT13=
EXTT14=
EXTT15=
EXTT16=
EXTT17=
EXTT18=
EXTT19=
PLAYORDER=
